<?xml version="1.0" encoding="UTF-8" standalone="no"?>
<!-- Created with Inkscape (http://www.inkscape.org/) -->

<svg
   width="40.00806mm"
   height="24.045633mm"
   viewBox="0 0 40.00806 24.045633"
   version="1.1"
   id="svg5"
   xml:space="preserve"
   xmlns:inkscape="http://www.inkscape.org/namespaces/inkscape"
   xmlns:sodipodi="http://sodipodi.sourceforge.net/DTD/sodipodi-0.dtd"
   xmlns="http://www.w3.org/2000/svg"
   xmlns:svg="http://www.w3.org/2000/svg"><sodipodi:namedview
     id="namedview7"
     pagecolor="#ffffff"
     bordercolor="#000000"
     borderopacity="0.25"
     inkscape:showpageshadow="2"
     inkscape:pageopacity="0.0"
     inkscape:pagecheckerboard="0"
     inkscape:deskcolor="#d1d1d1"
     inkscape:document-units="mm"
     showgrid="false" /><defs
     id="defs2"><style
       type="text/css"
       id="style2784">
   <![CDATA[
    .str0 {stroke:#CCCCCC;stroke-width:5.19274}
    .str1 {stroke:white;stroke-width:5.19274}
    .fil0 {fill:#0098DB}
    .fil1 {fill:white}
   ]]>
  </style></defs><g
     inkscape:groupmode="layer"
     id="layer3"
     inkscape:label="integracao"
     transform="translate(-15.701615,-13.724767)"><g
       inkscape:groupmode="layer"
       id="layer2"
       inkscape:label="troca"><path
         d="m 40.642343,17.24229 v -0.03655 c 0,-0.01219 0,-0.02445 -0.01215,-0.03655 0,-0.01219 -0.01215,-0.02445 -0.01215,-0.03655 0,-0.01219 -0.01219,-0.02445 -0.01219,-0.03655 0,-0.01218 -0.01215,-0.02445 -0.01215,-0.02445 -0.01215,-0.01219 -0.01215,-0.02445 -0.02442,-0.03655 v -0.0122 c 0,0 -0.01219,-0.01211 -0.01219,-0.01211 l -0.01215,-0.01219 -3.439297,-2.951267 c -0.109736,-0.08541 -0.243883,-0.109742 -0.378033,-0.061 -0.121988,0.061 -0.20731,0.182898 -0.20731,0.317057 v 1.536585 l -5.280569,8.7e-5 c -0.195147,0 -0.353622,0.158568 -0.353622,0.353619 v 2.182963 c 0,0.195146 0.158567,0.353619 0.353622,0.353619 h 5.304962 v 1.536593 c 0,0.134151 0.08541,0.256142 0.207309,0.317057 0.04875,0.02445 0.09757,0.03655 0.146316,0.03655 0.08541,0 0.158568,-0.02445 0.231733,-0.08541 l 3.414689,-2.975651 c 0.01219,0 0.01219,-0.01219 0.02443,-0.02445 l 0.01219,-0.01219 v -0.01211 c 0.01215,-0.01219 0.01215,-0.02445 0.02442,-0.03655 0,-0.01219 0.01215,-0.01219 0.01215,-0.02445 0,-0.01219 0.01215,-0.02445 0.01215,-0.03655 0,-0.01219 0.01219,-0.02445 0.01219,-0.03655 0,-0.01219 0,-0.02445 0.01215,-0.03655 v -0.03655 -0.03655 c -0.01209,1.74e-4 -0.01209,-0.01211 -0.01209,-0.02421 z"
         id="path3976"
         style="fill:#ed2a64;fill-opacity:1;stroke-width:0.0217773"
         inkscape:export-filename="integracao.svg"
         inkscape:export-xdpi="96"
         inkscape:export-ydpi="96" /></g><path
       style="fill:#606062;fill-opacity:1;stroke:#606062;stroke-width:0.315;stroke-opacity:1"
       d="M 40.629033,37.612902 H 55.709676"
       id="path15040-9" /><path
       style="fill:#606062;fill-opacity:1;stroke:#606062;stroke-width:0.315;stroke-opacity:1"
       d="M 15.701614,37.612902 H 30.782257"
       id="path15040" /><g
       id="g7555"
       transform="matrix(0.14841529,0,0,0.14841529,7.7537482,9.1126612)"
       style="fill:#606062;fill-opacity:1"
       inkscape:label="bus 2"><path
         d="m 65.059915,177.314 v -63.00534 h -4.433162 v 3.0897 h 1.47796 c 0.805889,0 1.477961,0.67134 1.477961,1.61178 v 12.22517 c 0,0.80589 -0.671334,1.61178 -1.477961,1.61178 h -4.836125 c -0.940462,0 -1.611777,-0.80589 -1.611777,-1.61178 v -12.22517 c 0,-0.94046 0.671334,-1.61178 1.611777,-1.61178 h 1.343406 v -3.62723 c 0,-0.94046 0.402944,-1.47796 1.343406,-1.47796 h 5.105272 V 94.560519 c 0,-4.970699 4.030199,-9.000898 9.000897,-9.000898 h 63.139721 c 4.83612,0 8.86632,4.030199 8.86632,9.000898 v 17.732651 h 5.10528 c 0.94046,0 1.3434,0.5375 1.3434,1.47796 v 3.62723 h 1.47796 c 0.80589,0 1.47796,0.67134 1.47796,1.61178 v 12.22517 c 0,0.80589 -0.67133,1.61178 -1.47796,1.61178 h -4.83612 c -0.94046,0 -1.61178,-0.80589 -1.61178,-1.61178 v -12.22517 c 0,-0.94046 0.67133,-1.61178 1.61178,-1.61178 h 1.3434 v -3.0897 h -4.43316 V 177.314 c 0,5.37366 -1.8809,5.50823 -6.04501,5.50823 v 5.50824 c 0,1.74635 -1.47796,3.22427 -3.22428,3.22427 h -7.11989 c -1.74635,0 -3.22428,-1.47796 -3.22428,-3.22427 v -5.50824 H 84.676591 v 5.50824 c 0,1.74635 -1.477961,3.22427 -3.224273,3.22427 H 74.33242 c -1.74635,0 -3.224273,-1.47796 -3.224273,-3.22427 v -5.50824 c -4.164772,0 -6.045014,-0.13456 -6.045014,-5.50823 z M 81.852063,88.919149 c -1.208832,0 -2.283773,1.075016 -2.283773,2.418346 v 6.985325 c 0,1.343406 1.075017,2.41835 2.283773,2.41835 h 47.422457 c 1.20883,0 2.28377,-1.07502 2.28377,-2.41835 v -6.985325 c 0,-1.343406 -1.07501,-2.418346 -2.28377,-2.418346 z M 74.060055,104.7708 c -3.089699,0 -5.642051,2.41834 -5.642051,5.50823 v 38.01746 c 0,3.0897 2.552163,5.37366 5.642051,5.50824 20.418817,1.61177 42.584625,1.61177 63.139725,0 2.95512,-0.13457 5.50823,-2.41835 5.50823,-5.50824 v -38.01746 c 0,-3.0897 -2.55216,-5.50823 -5.50823,-5.50823 z m 46.347385,62.19903 c -1.07502,0.94046 -0.5375,2.55216 1.07501,3.22427 5.10528,1.07502 16.79215,0.94046 19.07687,-1.74635 l -0.13456,-5.37366 c -4.56774,-5.50824 -18.67296,2.68674 -20.01566,3.89563 z m -29.689431,0 c 1.075016,0.94046 0.537499,2.55216 -1.075016,3.22427 -4.970699,1.07502 -16.658333,0.94046 -19.076868,-1.74635 l 0.134562,-5.37366 c 4.567735,-5.50824 18.672958,2.68674 20.015664,3.89563 z"
         fill-rule="evenodd"
         id="path7551"
         style="fill:#606062;fill-opacity:1;stroke-width:0.189273"
         sodipodi:nodetypes="ccccsssssssscsscsssscsscsssssssscccscssssccsssscccssssssssssssccsssscccccccccccc" /><rect
         style="fill:#606062;fill-opacity:1;stroke-width:0.384851"
         id="rect7553"
         width="2.3888569"
         height="50.934498"
         x="104.68431"
         y="104.62899" /></g><g
       id="g7561"
       transform="matrix(0.14841529,0,0,0.14841529,32.541269,9.1126612)"
       style="fill:#606062;fill-opacity:1"
       inkscape:label="bus 1"
       inkscape:export-filename="bus.svg"
       inkscape:export-xdpi="96"
       inkscape:export-ydpi="96"><path
         d="m 65.059915,177.314 v -63.00534 h -4.433162 v 3.0897 h 1.47796 c 0.805889,0 1.477961,0.67134 1.477961,1.61178 v 12.22517 c 0,0.80589 -0.671334,1.61178 -1.477961,1.61178 h -4.836125 c -0.940462,0 -1.611777,-0.80589 -1.611777,-1.61178 v -12.22517 c 0,-0.94046 0.671334,-1.61178 1.611777,-1.61178 h 1.343406 v -3.62723 c 0,-0.94046 0.402944,-1.47796 1.343406,-1.47796 h 5.105272 V 94.560519 c 0,-4.970699 4.030199,-9.000898 9.000897,-9.000898 h 63.139721 c 4.83612,0 8.86632,4.030199 8.86632,9.000898 v 17.732651 h 5.10528 c 0.94046,0 1.3434,0.5375 1.3434,1.47796 v 3.62723 h 1.47796 c 0.80589,0 1.47796,0.67134 1.47796,1.61178 v 12.22517 c 0,0.80589 -0.67133,1.61178 -1.47796,1.61178 h -4.83612 c -0.94046,0 -1.61178,-0.80589 -1.61178,-1.61178 v -12.22517 c 0,-0.94046 0.67133,-1.61178 1.61178,-1.61178 h 1.3434 v -3.0897 h -4.43316 V 177.314 c 0,5.37366 -1.8809,5.50823 -6.04501,5.50823 v 5.50824 c 0,1.74635 -1.47796,3.22427 -3.22428,3.22427 h -7.11989 c -1.74635,0 -3.22428,-1.47796 -3.22428,-3.22427 v -5.50824 H 84.676591 v 5.50824 c 0,1.74635 -1.477961,3.22427 -3.224273,3.22427 H 74.33242 c -1.74635,0 -3.224273,-1.47796 -3.224273,-3.22427 v -5.50824 c -4.164772,0 -6.045014,-0.13456 -6.045014,-5.50823 z M 81.852063,88.919149 c -1.208832,0 -2.283773,1.075016 -2.283773,2.418346 v 6.985325 c 0,1.343406 1.075017,2.41835 2.283773,2.41835 h 47.422457 c 1.20883,0 2.28377,-1.07502 2.28377,-2.41835 v -6.985325 c 0,-1.343406 -1.07501,-2.418346 -2.28377,-2.418346 z M 74.060055,104.7708 c -3.089699,0 -5.642051,2.41834 -5.642051,5.50823 v 38.01746 c 0,3.0897 2.552163,5.37366 5.642051,5.50824 20.418817,1.61177 42.584625,1.61177 63.139725,0 2.95512,-0.13457 5.50823,-2.41835 5.50823,-5.50824 v -38.01746 c 0,-3.0897 -2.55216,-5.50823 -5.50823,-5.50823 z m 46.347385,62.19903 c -1.07502,0.94046 -0.5375,2.55216 1.07501,3.22427 5.10528,1.07502 16.79215,0.94046 19.07687,-1.74635 l -0.13456,-5.37366 c -4.56774,-5.50824 -18.67296,2.68674 -20.01566,3.89563 z m -29.689431,0 c 1.075016,0.94046 0.537499,2.55216 -1.075016,3.22427 -4.970699,1.07502 -16.658333,0.94046 -19.076868,-1.74635 l 0.134562,-5.37366 c 4.567735,-5.50824 18.672958,2.68674 20.015664,3.89563 z"
         fill-rule="evenodd"
         id="path7557"
         style="fill:#606062;fill-opacity:1;stroke-width:0.189273"
         sodipodi:nodetypes="ccccsssssssscsscsssscsscsssssssscccscssssccsssscccssssssssssssccsssscccccccccccc" /><rect
         style="fill:#606062;fill-opacity:1;stroke-width:0.384851"
         id="rect7559"
         width="2.3888569"
         height="50.934498"
         x="104.68431"
         y="104.62899" /></g><g
       inkscape:groupmode="layer"
       id="layer4"
       inkscape:label="card"
       style="fill:#087ccd;fill-opacity:1"
       transform="matrix(0.85349359,0,0,0.85349359,2.7945959,2.5441489)"><path
         d="m 29.200061,14.971997 c 1.128116,1.10071 1.128116,2.890533 0,3.990278 -0.167187,0.162982 -0.167187,0.426432 0,0.588454 0.166197,0.162981 0.436448,0.162981 0.603551,0 1.460769,-1.42473 1.460769,-3.742274 0,-5.16723 -0.08354,-0.08057 -0.193184,-0.121247 -0.301723,-0.121247 -0.109626,0 -0.218176,0.04068 -0.301809,0.121247 -0.167274,0.16298 -0.167274,0.426341 0,0.588364 z"
         id="path8911"
         style="fill:#087ccd;fill-opacity:1;stroke-width:0.0227315" /><path
         d="m 28.99378,18.761404 c 1.01489,-0.989547 1.01489,-2.59899 0,-3.588536 -0.08354,-0.08144 -0.192191,-0.122389 -0.301808,-0.122389 -0.108734,0 -0.218186,0.04086 -0.301713,0.122389 -0.166197,0.162018 -0.166197,0.425467 0,0.588454 0.681592,0.664381 0.681592,1.747023 0,2.412482 -0.166197,0.162016 -0.166197,0.425556 0,0.587578 0.167092,0.162893 0.436439,0.162893 0.60354,0 z"
         id="path8909"
         style="fill:#087ccd;fill-opacity:1;stroke-width:0.0227315" /><path
         d="m 27.581554,17.972953 c 0.166196,0.161228 0.436448,0.162106 0.602646,-8.81e-4 0.567402,-0.554003 0.567402,-1.455682 0,-2.008719 -0.08268,-0.08137 -0.192096,-0.122129 -0.301713,-0.122129 -0.108734,0 -0.218177,0.04086 -0.300817,0.121247 -0.167179,0.162018 -0.167179,0.425466 -8.19e-4,0.588453 0.234894,0.229869 0.234894,0.603872 0,0.833832 -0.166379,0.162717 -0.166379,0.425287 8.19e-4,0.588184 z"
         id="path8907"
         style="fill:#087ccd;fill-opacity:1;stroke-width:0.0227315" /><path
         d="m 19.005545,20.835209 h 9.935274 c 0.235894,0 0.427287,-0.186389 0.427287,-0.416444 0,-0.229959 -0.191287,-0.415479 -0.427287,-0.415479 h -9.935274 c -0.05389,0 -0.09749,-0.04251 -0.09749,-0.09592 v -5.880495 c 0,-0.05251 0.0436,-0.09512 0.09749,-0.09512 h 9.935274 c 0.235894,0 0.427287,-0.186389 0.427287,-0.416444 0,-0.22987 -0.191287,-0.415479 -0.427287,-0.415479 h -9.935274 c -0.523681,0 -0.950958,0.415479 -0.950958,0.92704 v 5.880724 c 0,0.511291 0.427277,0.927556 0.950958,0.927556 z"
         id="path8905"
         style="fill:#087ccd;fill-opacity:1;stroke-width:0.0227315" /></g><g
       inkscape:groupmode="layer"
       id="layer6"
       inkscape:label="clock"><path
         d="m 35.87236,25.302142 c -1.98705,0 -3.60362,1.61657 -3.60362,3.603624 0,1.98705 1.61657,3.60362 3.60362,3.60362 1.987054,0 3.603624,-1.61657 3.603624,-3.60362 0,-1.987054 -1.61657,-3.603624 -3.603624,-3.603624 z m 0,6.486863 c -1.589695,0 -2.883239,-1.293427 -2.883239,-2.883239 0,-1.589815 1.293483,-2.883243 2.883239,-2.883243 1.589756,0 2.883243,1.293488 2.883243,2.883243 0,1.589756 -1.293487,2.883239 -2.883243,2.883239 z"
         id="path12606"
         style="fill:#087ccd;fill-opacity:1;stroke-width:0.0142933" /><path
         d="m 36.226835,28.801667 c 0.003,-0.01842 0.0057,-0.03679 0.0057,-0.05606 v -1.570831 c 0,-0.198879 -0.161301,-0.360176 -0.360176,-0.360176 -0.198878,0 -0.36018,0.161297 -0.36018,0.360176 v 1.570973 c 0,0.03065 -0.0039,0.379331 0.109269,0.480727 l 1.114589,0.999185 c 0.06873,0.0617 0.154711,0.09196 0.240299,0.09196 0.09877,0 0.197204,-0.04044 0.268384,-0.119766 0.132769,-0.148177 0.120375,-0.375811 -0.02774,-0.50858 z"
         id="path12608"
         style="fill:#087ccd;fill-opacity:1;stroke-width:0.0142933" /></g><g
       inkscape:groupmode="layer"
       id="layer4-3"
       inkscape:label="card"
       style="fill:#087ccd;fill-opacity:1"
       transform="matrix(0.85349358,0,0,0.85349358,30.018207,27.885943)"><path
         d="m 26.175152,-14.590686 c 1.128116,1.10071 1.128116,2.890533 0,3.990278 -0.167187,0.162982 -0.167187,0.426432 0,0.588454 0.166197,0.162981 0.436448,0.162981 0.603551,0 1.460769,-1.42473 1.460769,-3.742274 0,-5.16723 -0.08354,-0.08057 -0.193184,-0.121247 -0.301723,-0.121247 -0.109626,0 -0.218176,0.04068 -0.301809,0.121247 -0.167274,0.16298 -0.167274,0.426341 0,0.588364 z"
         id="path8911-6"
         style="fill:#087ccd;fill-opacity:1;stroke-width:0.0227315" /><path
         d="m 25.968871,-10.801279 c 1.01489,-0.989547 1.01489,-2.59899 0,-3.588536 -0.08354,-0.08144 -0.192191,-0.122389 -0.301808,-0.122389 -0.108734,0 -0.218186,0.04086 -0.301713,0.122389 -0.166197,0.162018 -0.166197,0.425467 0,0.588454 0.681592,0.664381 0.681592,1.747023 0,2.412482 -0.166197,0.162016 -0.166197,0.425556 0,0.587578 0.167092,0.162893 0.436439,0.162893 0.60354,0 z"
         id="path8909-3"
         style="fill:#087ccd;fill-opacity:1;stroke-width:0.0227315" /><path
         d="m 24.556645,-11.58973 c 0.166196,0.161228 0.436448,0.162106 0.602646,-8.81e-4 0.567402,-0.554003 0.567402,-1.455682 0,-2.008719 -0.08268,-0.08137 -0.192096,-0.122129 -0.301713,-0.122129 -0.108734,0 -0.218177,0.04086 -0.300817,0.121247 -0.167179,0.162018 -0.167179,0.425466 -8.19e-4,0.588453 0.234894,0.229869 0.234894,0.603872 0,0.833832 -0.166379,0.162717 -0.166379,0.425287 8.19e-4,0.588184 z"
         id="path8907-0"
         style="fill:#087ccd;fill-opacity:1;stroke-width:0.0227315" /><path
         d="m 15.980636,-8.727474 h 9.935274 c 0.235894,0 0.427287,-0.186389 0.427287,-0.416444 0,-0.229959 -0.191287,-0.415479 -0.427287,-0.415479 h -9.935274 c -0.05389,0 -0.09749,-0.04251 -0.09749,-0.09592 v -5.880495 c 0,-0.05251 0.0436,-0.09512 0.09749,-0.09512 h 9.935274 c 0.235894,0 0.427287,-0.186389 0.427287,-0.416444 0,-0.22987 -0.191287,-0.415479 -0.427287,-0.415479 h -9.935274 c -0.523681,0 -0.950958,0.415479 -0.950958,0.92704 v 5.880724 c 0,0.511291 0.427277,0.927556 0.950958,0.927556 z"
         id="path8905-3"
         style="fill:#087ccd;fill-opacity:1;stroke-width:0.0227315" /></g><g
       inkscape:groupmode="layer"
       id="layer5"
       inkscape:label="check"><path
         d="m 47.568393,19.094593 c 0.564323,0 1.105605,-0.224198 1.504622,-0.623239 0.399042,-0.399075 0.623237,-0.940296 0.623237,-1.504624 0,-0.564326 -0.224195,-1.105607 -0.623237,-1.504624 -0.399073,-0.399041 -0.940299,-0.623238 -1.504622,-0.623238 -0.564329,0 -1.105611,0.224197 -1.504628,0.623238 -0.399042,0.399075 -0.623237,0.940298 -0.623237,1.504624 0,0.564328 0.224195,1.105607 0.623237,1.504624 0.399079,0.399041 0.940299,0.623239 1.504628,0.623239 z m -1.104534,-2.07177 c 0.03625,-0.03601 0.08526,-0.05625 0.13637,-0.05625 0.05116,0 0.100131,0.02024 0.136401,0.05625 l 0.444899,0.444928 1.120031,-1.120031 c 0.04983,-0.04265 0.117817,-0.05716 0.180674,-0.03857 0.06289,0.01859 0.112051,0.06778 0.130642,0.130639 0.01864,0.06289 0.0043,0.130897 -0.03858,0.180705 l -1.257405,1.257404 2.5e-5,-2.3e-5 c -0.03625,0.03605 -0.08526,0.05625 -0.136401,0.05625 -0.05111,0 -0.100131,-0.02021 -0.136371,-0.05625 l -0.580315,-0.580336 c -0.03662,-0.0363 -0.05722,-0.08576 -0.05722,-0.137339 0,-0.05155 0.0206,-0.101011 0.05722,-0.13734 z"
         id="path11074"
         style="fill:#ed2a64;fill-opacity:1;stroke-width:0.00829041" /></g></g></svg>
