<?xml version="1.0" encoding="UTF-8"?>
<!DOCTYPE svg PUBLIC "-//W3C//DTD SVG 1.1//EN" "http://www.w3.org/Graphics/SVG/1.1/DTD/svg11.dtd">
<!-- Creator: CorelDRAW X5 -->
<svg xmlns="http://www.w3.org/2000/svg" xml:space="preserve" width="16.7251cm" height="3.69807cm" style="shape-rendering:geometricPrecision; text-rendering:geometricPrecision; image-rendering:optimizeQuality; fill-rule:evenodd; clip-rule:evenodd"
viewBox="0 0 14810 3275"
 xmlns:xlink="http://www.w3.org/1999/xlink">
 <defs>
  <style type="text/css">
   <![CDATA[
    .str0 {stroke:white;stroke-width:17.7095}
    .fil1 {fill:white}
    .fil0 {fill:white;fill-rule:nonzero}
   ]]>
  </style>
 </defs>
 <g id="Camada_x0020_1">
  <metadata id="CorelCorpID_0Corel-Layer"/>
  <path class="fil0" d="M1337 1212c93,142 131,241 114,298 -3,12 -4,23 -4,36 0,59 59,97 177,113 81,12 158,-9 231,-60 53,-38 84,-105 93,-202 11,-132 -15,-253 -76,-362 -93,-163 -255,-274 -488,-333 -126,-33 -252,-49 -378,-49 -216,0 -399,46 -550,138 -179,106 -300,265 -361,477 -62,211 -93,420 -93,625 0,329 73,604 219,826 162,250 397,400 702,450 39,5 86,7 139,7 241,0 477,-40 706,-121 109,-40 166,-100 172,-181 9,-115 -18,-211 -79,-287 -23,-29 -55,-43 -97,-43 -33,0 -71,8 -114,24 -140,55 -287,82 -441,82 -334,0 -545,-133 -634,-401 -54,-163 -80,-308 -80,-436 0,-106 20,-213 59,-319 93,-239 250,-358 471,-358 107,0 212,25 315,74zm2089 1546c-8,-59 -50,-91 -126,-96 -182,-16 -422,18 -719,103 -53,-236 -95,-509 -126,-819 168,-21 335,-34 501,-39 90,-3 146,-37 168,-103 20,-64 20,-126 0,-188 -14,-45 -53,-69 -117,-71 -135,-5 -327,23 -576,85 -11,-180 -15,-344 -13,-493 180,-45 418,-91 715,-138 76,-14 122,-50 139,-106 19,-73 19,-133 0,-181 -17,-38 -57,-57 -122,-57 -132,0 -300,15 -504,46 -204,30 -361,62 -470,96 -67,19 -108,35 -122,49 -25,19 -39,54 -42,106 -3,113 -4,234 -4,362 0,681 40,1252 122,1713 9,56 21,95 36,115 15,20 43,30 82,30 17,0 38,-1 63,-4 311,-43 620,-69 929,-78 73,-3 122,-29 148,-78 42,-71 56,-156 42,-255zm1674 -2085c-38,-59 -113,-92 -224,-99 -45,-5 -98,-7 -160,-7 -465,0 -834,33 -1105,99 -84,19 -131,51 -139,95 -8,60 6,109 44,149 38,40 96,58 175,53 117,-9 256,-16 416,-21 25,253 39,587 42,1000 6,392 2,714 -13,965 -6,87 0,145 17,173 25,38 81,57 168,57 142,0 249,-26 319,-78 59,-49 87,-140 85,-273 -3,-196 -34,-493 -93,-890 -59,-397 -118,-716 -177,-957 174,0 338,6 492,18 64,5 110,0 137,-14 26,-14 44,-41 52,-81 14,-66 2,-129 -36,-188zm2036 2187c-39,-331 -59,-706 -59,-1124 0,-300 10,-569 30,-805 6,-56 0,-95 -17,-115 -17,-20 -55,-30 -113,-30 -112,-2 -206,23 -282,78 -61,43 -96,110 -105,202 -3,45 -4,98 -4,160 0,362 42,795 126,1301 -163,220 -368,329 -618,327 -252,-5 -407,-144 -467,-419 -22,-108 -33,-228 -33,-358 0,-267 59,-612 177,-1035 20,-69 29,-115 29,-141 0,-40 -21,-77 -63,-110 -73,-54 -157,-83 -252,-85 -115,-5 -193,45 -235,149 -101,253 -151,583 -151,989 0,175 13,338 38,489 42,272 140,484 294,638 160,163 368,245 626,245 283,2 523,-112 719,-344 20,85 31,132 33,142 25,64 57,96 97,96 14,0 31,-4 50,-11 56,-14 102,-42 139,-84 36,-41 50,-93 42,-154zm1878 -206c-78,-78 -234,-182 -467,-314 -233,-131 -423,-223 -572,-274 149,-45 298,-121 448,-229 150,-108 262,-223 334,-346 65,-111 97,-216 97,-316 0,-141 -63,-255 -189,-338 -126,-84 -315,-126 -568,-126 -297,0 -554,48 -769,145 -87,38 -131,84 -131,138 0,24 4,56 13,96 120,586 174,1272 160,2057 0,52 11,87 34,106 22,19 63,24 122,18 84,-7 161,-30 231,-68 81,-45 119,-125 114,-241 -3,-158 -30,-385 -80,-681 286,189 568,431 845,727 50,54 100,81 147,81 31,0 65,-12 101,-35 48,-29 91,-72 129,-130 38,-58 57,-110 57,-157 0,-38 -18,-76 -55,-114zm-1450 -1432c199,-99 409,-149 631,-149 149,0 244,31 286,92 17,26 25,53 25,82 0,106 -83,215 -248,326 -168,118 -356,189 -563,213 -45,-213 -88,-400 -131,-564zm3165 858c-28,-168 -109,-303 -243,-404 -118,-90 -264,-143 -438,-160 93,-45 174,-112 244,-202 70,-90 105,-183 105,-280 0,-80 -28,-153 -84,-220 -98,-121 -276,-181 -533,-181 -202,0 -394,31 -576,92 -81,29 -132,56 -153,82 -21,26 -32,76 -32,149 11,636 93,1335 243,2099 17,80 81,119 194,117 165,-7 347,-49 547,-128 230,-95 409,-215 538,-362 160,-180 223,-381 189,-603zm-1320 -1099c76,-31 163,-46 260,-46 137,0 224,36 260,106 11,21 17,43 17,64 0,76 -52,148 -158,216 -105,69 -216,112 -334,131 -22,-179 -38,-337 -46,-471zm315 1819c-76,-265 -147,-594 -214,-986 93,-21 181,-32 265,-32 210,0 356,61 437,181 45,66 67,138 67,216 0,128 -54,252 -162,372 -108,121 -239,203 -393,248z"/>
  <path class="fil1" d="M11916 2492c198,-57 416,-98 614,-80 133,12 228,93 244,228 15,126 1,253 -52,369 -49,107 -144,163 -260,168 -301,12 -601,46 -899,89 -27,4 -54,6 -81,6 -78,0 -150,-30 -192,-97 -33,-52 -46,-126 -55,-187 -93,-663 -121,-1346 -121,-2014 0,-142 0,-284 4,-426 2,-78 23,-155 78,-212 42,-44 115,-71 172,-91 154,-53 322,-88 482,-117 168,-30 348,-56 519,-56 109,0 207,47 245,154 33,92 26,193 4,286 -29,121 -118,199 -239,223 -196,41 -402,79 -597,132 0,101 2,201 6,302 147,-37 307,-66 446,-60 115,5 208,67 238,181 25,95 26,192 0,287 -37,139 -147,214 -288,218 -118,4 -236,13 -353,27 21,223 48,446 85,667zm726 164c-8,-69 -50,-106 -124,-112 -179,-19 -415,20 -706,120 -52,-275 -94,-594 -124,-954 165,-25 329,-40 492,-45 88,-3 143,-43 165,-120 19,-74 19,-147 0,-219 -14,-52 -52,-80 -115,-82 -133,-6 -321,27 -566,99 -11,-209 -15,-401 -12,-574 177,-53 411,-106 703,-161 74,-17 120,-58 136,-124 19,-86 19,-156 0,-211 -17,-44 -56,-66 -120,-66 -130,0 -294,18 -496,54 -201,35 -355,72 -462,112 -66,22 -106,41 -120,58 -25,22 -38,63 -41,124 -3,132 -4,273 -4,421 0,793 40,1459 120,1996 9,66 20,111 35,134 15,24 42,35 81,35 17,0 37,-1 62,-4 305,-50 610,-80 913,-90 72,-3 120,-33 145,-91 41,-82 55,-182 41,-297z"/>
  <path class="fil1 str0" d="M13836 804c-54,-60 -126,-115 -212,-107 -48,5 -90,28 -127,58 -19,16 -38,35 -36,61 3,34 63,70 89,83 212,114 433,211 659,293 156,57 280,171 378,302 118,158 188,338 207,534 27,276 -24,540 -177,773 -160,243 -391,388 -677,437 -398,70 -738,-39 -978,-371 -49,-68 -96,-149 -105,-234 -8,-83 24,-167 63,-239 67,-122 165,-217 291,-277 39,-19 82,-33 126,-37 121,-12 209,69 265,167 30,52 64,116 101,164 29,38 67,77 110,100 23,12 54,24 80,22 61,-6 96,-68 118,-118 35,-77 51,-157 43,-242 -19,-188 -120,-314 -282,-404 -107,-59 -225,-110 -338,-158 -112,-48 -226,-98 -333,-155 -210,-112 -358,-279 -382,-521 -12,-122 7,-242 51,-356 60,-157 168,-281 304,-378 157,-111 335,-172 527,-188 247,-21 495,21 683,193 58,53 97,119 104,197 5,50 -7,99 -23,146 -35,103 -86,195 -166,270 -43,40 -95,71 -154,76 -84,8 -155,-32 -210,-92zm99 -89c-104,-111 -212,-161 -324,-150 -70,7 -135,36 -198,87 -63,51 -91,110 -84,177 7,73 60,136 158,187 214,117 440,217 676,301 114,43 219,128 317,257 104,142 164,298 181,468 26,260 -27,489 -156,687 -137,208 -333,335 -588,379 -372,65 -654,-41 -847,-318 -49,-66 -75,-123 -80,-170 -4,-42 11,-96 47,-161 55,-99 133,-172 232,-221 32,-15 60,-23 82,-25 50,-5 96,29 137,101 48,85 85,145 111,179 49,63 100,109 155,137 55,28 106,40 154,36 98,-10 173,-75 226,-195 47,-100 64,-204 54,-310 -22,-220 -139,-390 -350,-507 -87,-48 -203,-102 -350,-164 -159,-69 -267,-119 -323,-150 -190,-97 -294,-235 -312,-417 -9,-95 5,-194 42,-296 50,-126 135,-232 257,-317 131,-95 285,-149 461,-164 251,-22 445,31 582,158 37,33 58,70 62,112 2,25 -3,55 -16,90 -23,81 -67,153 -131,216 -29,26 -54,39 -76,41 -34,3 -67,-13 -98,-49z"/>
 </g>
</svg>
