<?xml version="1.0" encoding="UTF-8" standalone="no"?>
<!-- Created with Inkscape (http://www.inkscape.org/) -->

<svg
   width="36.90514mm"
   height="33.714325mm"
   viewBox="0 0 36.90514 33.714325"
   version="1.1"
   id="svg5"
   xml:space="preserve"
   xmlns:inkscape="http://www.inkscape.org/namespaces/inkscape"
   xmlns:sodipodi="http://sodipodi.sourceforge.net/DTD/sodipodi-0.dtd"
   xmlns="http://www.w3.org/2000/svg"
   xmlns:svg="http://www.w3.org/2000/svg"><sodipodi:namedview
     id="namedview7"
     pagecolor="#ffffff"
     bordercolor="#000000"
     borderopacity="0.25"
     inkscape:showpageshadow="2"
     inkscape:pageopacity="0.0"
     inkscape:pagecheckerboard="0"
     inkscape:deskcolor="#d1d1d1"
     inkscape:document-units="mm"
     showgrid="false" /><defs
     id="defs2"><style
       type="text/css"
       id="style1071">
   <![CDATA[
    .fil1 {fill:#0098DB}
    .fil0 {fill:#ED2A64}
    .fil2 {fill:white;fill-rule:nonzero}
   ]]>
  </style><style
       type="text/css"
       id="style1071-2">
   <![CDATA[
    .fil1 {fill:#0098DB}
    .fil0 {fill:#ED2A64}
    .fil2 {fill:white;fill-rule:nonzero}
   ]]>
  </style><style
       type="text/css"
       id="style1071-6">
   <![CDATA[
    .fil1 {fill:#0098DB}
    .fil0 {fill:#ED2A64}
    .fil2 {fill:white;fill-rule:nonzero}
   ]]>
  </style><style
       type="text/css"
       id="style1269">
   <![CDATA[
    .fil0 {fill:white}
    .fil1 {fill:white;fill-rule:nonzero}
   ]]>
  </style></defs><g
     inkscape:groupmode="layer"
     id="layer3"
     inkscape:label="Camada 2"
     transform="translate(-32.774289,-116.13511)"><g
       id="Camada_x0020_1-3"
       style="clip-rule:evenodd;fill-rule:evenodd;image-rendering:optimizeQuality;shape-rendering:geometricPrecision;text-rendering:geometricPrecision"
       transform="matrix(0.00637725,0,0,0.00637725,32.780666,116.1415)"
       inkscape:export-filename="logo_pit_branco.svg"
       inkscape:export-xdpi="61.988598"
       inkscape:export-ydpi="61.988598">
  <metadata
   id="CorelCorpID_0Corel-Layer-8" />
  <path
   class="fil0"
   d="m 216,3509 c 41,131 151,234 294,257 l 455,81 c -48,-75 -91,-144 -128,-204 l -494,-88 c -46,-7 -89,-23 -127,-46 z m 1227,992 c 180,237 396,490 644,717 171,159 453,18 418,-218 -47,-312 -35,-647 -18,-882 l 2858,506 c 229,41 441,-135 441,-371 V 618 c 0,-140 -75,-259 -184,-324 11,35 17,73 17,113 v 3635 c 0,235 -212,412 -441,371 L 2320,3907 c -18,235 -29,570 18,882 35,235 -247,376 -418,218 -175,-161 -335,-334 -477,-506 z"
   id="path1274" />
  <path
   class="fil1"
   d="M 5183,68 349,915 v 0 c -83,13 -154,56 -204,116 -51,61 -81,139 -81,224 v 1929 c 0,84 30,163 81,224 50,60 121,102 204,116 h 1 l 494,88 14,2 7,12 c 99,164 243,387 425,629 181,241 401,498 652,729 v 0 c 38,36 83,54 128,58 43,4 86,-5 124,-25 38,-20 70,-49 90,-87 21,-38 31,-85 23,-137 v 0 c -24,-157 -33,-320 -33,-474 -1,-154 7,-297 15,-415 l 3,-35 34,6 2858,506 v 0 c 20,4 41,5 61,5 82,0 159,-30 220,-80 60,-50 103,-121 118,-203 4,-20 5,-40 5,-62 V 406 c 0,-22 -2,-43 -5,-62 -15,-82 -58,-152 -118,-203 -60,-50 -137,-80 -220,-80 -21,0 -41,2 -61,5 v 0 z M 338,853 v 0 L 5172,6 v 0 c 25,-4 49,-7 72,-7 98,0 189,35 260,95 71,59 122,143 139,240 4,24 7,49 7,73 v 3635 c 0,25 -2,49 -7,73 -17,97 -68,180 -139,240 -71,60 -162,95 -260,95 -23,0 -47,-2 -72,-7 v 0 L 2348,3943 c -8,110 -14,239 -13,375 1,150 9,311 33,465 v 0 c 10,66 -3,126 -31,176 -27,48 -68,87 -116,112 -48,25 -103,37 -158,32 -58,-5 -116,-29 -165,-75 v 0 C 1644,4794 1422,4534 1238,4291 1060,4055 918,3834 817,3669 l -480,-86 v 0 C 239,3567 155,3517 95,3446 34,3374 -1,3281 -1,3182 V 1253 c 0,-99 36,-192 96,-264 60,-71 144,-121 242,-137 z"
   id="path1276" />
  <path
   class="fil1"
   d="m 4036,748 c -3,199 -6,397 -8,595 213,-29 440,-61 682,-94 37,-5 73,-10 111,-15 -1,23 -1,46 -2,68 -3,142 -5,284 -8,424 0,23 0,46 -1,68 -38,3 -74,5 -110,7 -241,16 -468,30 -680,44 -2,136 -5,272 -6,407 -2,135 -3,271 -5,406 -1,70 6,130 20,180 14,46 34,83 61,111 0,0 0,0 0,0 25,25 58,46 100,62 46,18 104,30 176,37 21,2 42,4 62,5 20,1 43,1 70,1 27,-1 54,-1 80,-3 27,-2 56,-4 89,-7 46,-4 93,-8 140,-14 0,31 1,61 1,91 2,133 4,266 7,398 0,18 1,36 1,53 -28,0 -55,0 -83,0 -55,1 -108,0 -159,-3 -52,-2 -104,-6 -155,-11 -50,-4 -102,-10 -153,-16 -45,-6 -92,-12 -142,-21 -1,0 -1,0 -2,0 -184,-31 -335,-73 -458,-123 -123,-50 -220,-111 -290,-182 0,0 0,0 0,0 -70,-69 -119,-152 -150,-250 -30,-93 -45,-201 -44,-325 2,-124 3,-247 4,-371 1,-124 3,-249 4,-373 -125,8 -245,16 -359,23 -21,1 -42,3 -62,4 0,-17 0,-33 1,-50 1,-104 2,-208 3,-312 0,-17 0,-34 0,-51 20,-3 41,-6 62,-9 123,-17 252,-34 387,-53 2,-126 3,-251 4,-377 0,-13 0,-26 1,-40 17,-7 33,-15 49,-22 201,-92 416,-192 645,-298 40,-18 79,-36 119,-56 0,30 -1,58 -1,87 z"
   id="path1278" />
  <path
   class="fil1"
   d="m 2086,953 c 135,-36 279,-74 431,-115 19,-5 38,-10 57,-15 0,17 0,34 0,50 -1,133 -2,265 -3,398 0,17 0,33 -1,49 -19,3 -38,7 -57,10 -152,26 -294,52 -429,76 -16,3 -32,6 -47,8 0,-15 0,-30 0,-45 1,-120 1,-240 2,-359 0,-15 0,-30 1,-45 15,-4 31,-8 47,-13 z"
   id="path1280" />
  <path
   class="fil1"
   d="m 950,2844 c -1,177 -1,355 -1,531 0,11 0,23 0,34 -10,-3 -19,-5 -28,-8 -76,-22 -150,-42 -219,-62 -9,-2 -17,-5 -25,-7 0,-10 0,-21 0,-32 0,-122 0,-244 0,-365 0,-122 0,-244 0,-367 0,-123 0,-245 0,-368 0,-123 0,-246 0,-369 0,-11 0,-21 0,-32 8,-1 16,-2 24,-3 63,-9 130,-18 198,-27 10,-1 19,-3 28,-4 0,12 0,23 0,35 0,34 0,68 0,102 4,-6 8,-12 12,-17 26,-35 54,-66 86,-93 32,-27 68,-50 107,-66 39,-17 80,-29 125,-36 75,-11 145,-5 210,18 67,24 127,66 180,128 0,0 0,0 0,0 54,62 94,137 122,226 27,89 41,190 41,301 0,111 -16,211 -45,299 -29,88 -71,163 -126,225 -54,61 -115,104 -181,127 -65,23 -134,28 -206,15 -41,-7 -79,-18 -115,-33 -35,-15 -67,-34 -97,-57 -30,-23 -56,-49 -80,-80 -3,-4 -6,-9 -10,-13 z m 224,-836 c -37,3 -68,12 -96,29 -26,16 -49,39 -68,69 -20,30 -35,66 -45,107 -10,41 -15,89 -15,142 0,53 5,100 14,141 9,41 23,77 43,108 19,30 40,54 65,71 25,17 55,27 87,30 35,3 66,-1 93,-14 28,-13 52,-34 74,-64 22,-31 40,-69 51,-113 12,-46 18,-100 17,-160 0,-57 -5,-108 -17,-153 -10,-43 -26,-81 -48,-112 -21,-30 -45,-52 -71,-65 -26,-13 -54,-18 -86,-16 z"
   id="path1282" />
  <path
   class="fil1"
   d="m 2082,1606 c 135,-18 278,-38 429,-59 19,-3 38,-5 57,-8 0,17 0,33 -1,50 -1,132 -2,265 -3,397 -1,132 -2,265 -3,396 -1,132 -2,263 -3,394 -1,131 -3,263 -4,393 0,16 0,32 0,48 -20,-3 -38,-6 -57,-9 -149,-25 -291,-49 -425,-71 -16,-3 -32,-5 -47,-8 0,-14 0,-29 0,-44 1,-118 1,-237 2,-356 0,-118 1,-238 2,-357 1,-119 1,-238 2,-358 1,-120 1,-240 2,-359 0,-15 0,-29 1,-45 15,-2 31,-5 46,-6 z"
   id="path1284" />
 </g></g></svg>
