<?xml version="1.0" encoding="UTF-8" standalone="no"?>
<!-- Created with Inkscape (http://www.inkscape.org/) -->

<svg
   width="59.598042mm"
   height="54.409042mm"
   viewBox="0 0 59.598041 54.409042"
   version="1.1"
   id="svg5"
   xml:space="preserve"
   xmlns="http://www.w3.org/2000/svg"
   xmlns:svg="http://www.w3.org/2000/svg"><defs
     id="defs2"><style
       type="text/css"
       id="style1071">
   <![CDATA[
    .fil1 {fill:#0098DB}
    .fil0 {fill:#ED2A64}
    .fil2 {fill:white;fill-rule:nonzero}
   ]]>
  </style></defs><g
     id="layer1"
     transform="translate(-0.41272671,-0.15521153)"><g
       style="clip-rule:evenodd;fill-rule:evenodd;image-rendering:optimizeQuality;shape-rendering:geometricPrecision;text-rendering:geometricPrecision"
       id="g1102"
       transform="matrix(0.02276044,0,0,0.02276044,0.41272671,0.13815209)"><g
         id="Camada_x0020_1">
  <metadata
   id="CorelCorpID_0Corel-Layer" />
  <path
   class="fil0"
   d="M 2418.2204,99.09773 217.82841,484.68653 C 134.59845,498.34145 76.077386,570.51742 76.077386,653.09715 V 1530.913 c 0,83.2301 59.171294,155.4061 141.751024,168.4107 l 224.98098,40.3145 c 91.03276,150.204 262.04432,409.6475 492.2272,620.9736 77.37781,72.1759 206.12421,7.8028 189.86821,-98.8357 -21.4576,-141.7509 -16.2558,-294.556 -7.8027,-401.1943 l 1300.4681,230.1829 c 104.6877,18.8568 200.9223,-61.7722 200.9223,-168.4107 V 268.15859 c 0,-107.28861 -96.2346,-187.267411 -200.9223,-168.410622 z"
   id="path1076"
   style="stroke-width:0.650233" />
  <path
   class="fil1"
   d="M 2342.1431,2.8630931 141.75102,388.45191 C 58.521063,402.1068 0,474.28279 0,556.86252 v 877.81598 c 0,83.23 59.171298,155.4059 141.75102,168.4106 l 224.98099,40.3146 c 91.03277,150.204 262.04432,409.6473 492.22716,620.9734 77.37787,72.1759 206.12423,7.8028 189.86843,-98.8356 -21.4579,-141.7509 -16.256,-294.5561 -7.8028,-401.1944 L 2341.4929,1994.53 c 104.6877,18.8568 200.9222,-61.7723 200.9222,-168.4105 V 171.92395 c 0,-107.288623 -96.2345,-187.26741 -200.9222,-168.4106226 z"
   id="path1078"
   style="fill:#087cdb;fill-opacity:1;stroke-width:0.650233" />
  <path
   class="fil2"
   d="m 1822.6061,326.02943 c -1.3006,90.38253 -2.601,180.76503 -3.9014,270.49736 96.8849,-13.00469 200.272,-27.30984 310.1616,-42.91545 16.9061,-1.9507 33.1619,-4.55164 50.7183,-6.50235 -0.6503,10.40377 -0.6503,20.80748 -0.6503,31.21125 -1.3005,64.37316 -1.9506,128.74633 -3.2512,193.11951 0,10.40372 0,20.80746 -0.6502,31.21123 -16.906,1.30047 -33.8122,2.60094 -50.068,3.25118 -109.8895,7.15256 -213.2768,13.65489 -309.5115,20.15725 -0.6502,61.77225 -1.9507,123.54441 -2.6009,185.31679 -0.6502,61.7721 -1.3004,122.8941 -2.601,184.6664 -0.6501,31.8614 2.601,59.1713 9.1034,81.9294 6.5022,20.8076 15.6056,37.7137 27.3097,50.7183 0,0 0,0 0,0 11.054,11.7041 26.6596,20.8075 45.5165,28.6104 20.8074,7.8027 47.4671,13.6548 79.9788,16.9059 9.7535,1.3006 19.507,1.9508 28.6102,1.9508 9.1034,0.6503 19.5072,0.6503 31.8615,0.6503 12.3545,0 24.7089,-0.6503 36.4131,-1.3005 12.3545,-0.6502 25.3592,-1.9507 40.3146,-3.2511 20.8075,-1.9508 42.2652,-3.9015 63.7229,-5.8521 0,14.305 0,27.9599 0.6502,41.6148 1.3005,60.4719 1.9507,120.9437 3.2513,181.4154 0,8.453 0.6501,16.2558 0.6501,24.0586 -12.3544,0 -25.3591,0 -37.7136,0 -25.359,0.6503 -49.4176,0 -72.1759,-1.3004 -23.4084,-1.3005 -47.467,-2.6009 -70.8754,-5.2018 -22.7584,-1.9508 -46.1668,-4.5517 -69.5752,-7.1526 -20.1573,-2.601 -41.615,-5.2019 -64.3732,-9.1034 -0.6502,0 -0.6502,0 -1.3004,0 -83.8802,-14.3051 -152.8051,-33.1618 -208.7251,-55.9201 -55.9202,-22.7582 -100.1361,-50.7183 -131.9975,-83.23 0,0 0,0 0,0 -31.8614,-31.2112 -54.6196,-69.575 -68.2745,-113.7909 -13.6551,-42.2653 -20.1573,-91.6831 -20.1573,-148.2534 0.6501,-55.9201 1.3003,-112.4905 1.9505,-169.0609 0.6504,-56.5703 1.3005,-113.14058 1.9508,-169.71102 -56.5703,3.90144 -111.8403,7.15267 -163.859,10.40372 -9.7535,0.65031 -18.8568,1.30052 -27.9599,1.95081 0,-7.8028 0,-14.95547 0,-22.7583 0,-47.46703 0.6501,-94.93412 1.3004,-142.40121 0,-7.80283 0,-15.60563 0,-23.40843 9.1033,-1.30047 18.8567,-2.60094 28.6102,-3.90142 55.9202,-7.8028 114.4412,-15.6056 176.2136,-24.05863 0.6501,-57.2206 1.3003,-114.44122 1.9507,-171.66179 0,-5.85212 0,-11.70424 0,-18.20657 7.8027,-3.25115 14.9552,-6.50233 22.1078,-10.40374 91.0328,-42.26521 189.2183,-87.13136 293.2556,-135.24868 18.2066,-8.45307 35.7629,-16.25587 53.9695,-25.35914 0,13.65492 -0.6504,26.65961 -0.6504,39.66429 z"
   id="path1080"
   style="stroke-width:0.650233" />
  <path
   class="fil2"
   d="m 935.03659,419.66311 c 61.7722,-16.25584 127.44581,-33.81217 195.72041,-52.01871 8.4531,-2.60094 17.5564,-4.55165 26.0094,-7.15259 0,7.80282 0,15.60562 0,22.75821 -0.6502,60.47175 -0.6502,120.94353 -1.3005,180.76504 0,7.80283 0,14.95542 0,22.75822 -9.1033,1.30047 -17.5562,3.25115 -26.0094,4.55162 -68.9247,12.35445 -133.94818,23.40843 -195.7204,34.46241 -7.15262,1.30047 -14.30511,2.60094 -21.4578,3.90141 0,-6.50236 0,-13.65492 0,-20.15725 0.65031,-54.61965 0.65031,-109.23934 1.30052,-163.20875 0,-6.50236 0,-13.65493 0,-20.80749 7.15259,-1.95071 14.3051,-3.90141 21.45777,-5.85212 z"
   id="path1082"
   style="stroke-width:0.650233" />
  <path
   class="fil2"
   d="m 418.10049,1280.573 c 0,80.6291 -0.65024,161.258 -0.65024,241.8871 0,5.2019 0,10.4037 0,15.6056 -4.55162,-1.3004 -8.45303,-2.601 -13.00466,-3.2512 -34.46243,-9.7535 -68.27457,-18.8567 -100.13606,-27.96 -3.90139,-1.3005 -7.8028,-2.601 -11.05398,-3.2513 0,-4.5516 0,-9.7534 0,-14.3051 0,-55.2699 0,-111.19 0,-166.4599 0,-55.2699 0,-111.19 0,-167.1102 0,-55.92 0,-111.8402 0,-167.76028 0,-55.92015 0,-111.84023 0,-167.76043 0,-4.55162 0,-9.75351 0,-14.95537 3.90141,-0.65023 7.15259,-1.30047 11.05398,-1.30047 28.61031,-3.90141 59.1713,-8.45303 90.38253,-12.35445 4.55165,-0.65023 8.45304,-1.30047 13.00468,-1.9507 0,5.20188 0,10.40374 0,15.60562 0,15.60561 0,31.21123 0,46.16665 1.95071,-2.60094 3.90142,-5.20189 5.20189,-7.80291 11.70421,-16.25578 24.7089,-29.9107 39.01403,-42.26515 14.95539,-12.35445 31.21125,-22.75819 48.76756,-29.91076 17.55633,-7.80282 36.41311,-13.00468 57.22059,-16.25586 33.81217,-5.20188 65.67364,-1.9507 95.58439,8.45304 30.56102,11.05398 57.87086,29.91078 81.9295,57.8708 0,0 0,0 0,0 24.7089,27.96011 42.91547,62.42256 55.26992,102.73701 12.35442,40.31455 18.85677,86.48116 18.20654,137.19936 0,50.7183 -7.15257,95.5844 -20.15728,135.899 -13.00466,40.3145 -32.5117,74.1267 -57.22057,102.7371 -24.7089,27.9599 -52.01871,47.4669 -82.57973,57.8706 -29.26052,10.4038 -61.12201,12.3545 -93.63371,6.5024 -18.85678,-3.2511 -35.76287,-8.4531 -52.01871,-14.9554 -16.25586,-7.1526 -30.56099,-15.6056 -44.21591,-26.0093 -13.65492,-10.4038 -25.35914,-22.108 -36.41311,-36.4131 -1.30048,-1.9508 -2.60095,-3.9015 -4.55165,-5.8522 z M 520.18726,900.18605 c -16.9061,1.3005 -31.21126,5.20186 -43.56571,13.00466 -11.70421,7.15267 -22.10795,17.55644 -31.21122,31.21123 -9.10327,13.65497 -15.60563,29.91081 -20.15728,48.76766 -4.5516,18.8568 -6.5023,40.3145 -6.5023,64.3731 0,24.0587 1.9507,45.5163 6.5023,64.3731 3.90141,18.8569 10.40377,35.1127 19.50704,49.418 8.45306,13.6548 18.20654,24.7088 29.26055,32.5116 11.05395,7.8028 24.70887,12.3544 39.66426,13.6549 15.6056,1.3005 29.91076,-0.6502 42.26521,-5.8521 13.00468,-5.8521 23.40845,-15.6056 33.16193,-29.2605 10.40377,-14.3052 18.20657,-31.2112 23.40846,-51.3685 5.20185,-20.8075 7.8028,-45.5164 7.8028,-72.8262 0,-26.0093 -2.60095,-49.4178 -7.8028,-69.57515 -4.55165,-19.50699 -11.70424,-36.41308 -22.10799,-50.71819 -9.7535,-13.65492 -20.15725,-23.40843 -32.5117,-29.26052 -11.70421,-5.85217 -24.70889,-8.45309 -39.01405,-7.15259 z"
   id="path1084"
   style="stroke-width:0.650233" />
  <path
   class="fil2"
   d="m 933.08578,716.8201 c 61.77233,-8.45306 126.79572,-17.55633 195.72042,-26.65963 8.4532,-1.30045 17.5564,-2.60092 26.0095,-3.25115 0,7.8028 0,14.95536 0,22.75819 -0.6502,60.47177 -1.3004,120.9435 -1.3004,180.76509 -0.6503,60.47172 -1.3005,120.2933 -1.3005,180.1149 -0.6503,59.8215 -0.6503,119.643 -1.3005,179.4645 -0.6503,59.8216 -1.3005,119.6431 -1.3005,178.8143 0,7.1526 0,14.3052 0,22.108 -9.1032,-1.3005 -17.5563,-2.6009 -26.0094,-3.9015 -68.2744,-11.7041 -132.64773,-22.1078 -193.11956,-32.5116 -7.15251,-1.3005 -14.30508,-2.6009 -21.45759,-3.2511 0,-6.5024 0,-13.0047 0,-20.1573 0.65013,-53.9694 0.65013,-107.9389 0.65013,-161.9083 0,-53.9694 0.65029,-107.9389 1.3005,-162.5585 0.65031,-53.9694 0.65031,-108.58909 1.30042,-163.20872 0.65031,-54.61965 0.65031,-109.23933 1.30052,-163.20878 0,-6.50233 0,-13.65492 0,-20.15727 7.15259,-1.30045 13.65497,-1.95066 20.80749,-3.25113 z"
   id="path1086"
   style="stroke-width:0.650233" />
 </g></g></g></svg>
